# xmcd CD database file
#
# Track frame offsets:
#	150
#	16592
#	31845
#	47325
#	62467
#	79257
#	96110
#	112840
#	129716
#	146458
#	161923
#	178439
#
# Disc length: 2591 seconds
#
# Revision: 0
# Processed by: cddbd v1.5.1PL0 Copyright (c) Steve Scherf et al.
# Submitted via: CDex 1.51
#
DISCID=930a1d0c
DTITLE=Nando Cordel-Passion - Passion
DYEAR=2003
DGENRE=MPB
TTITLE0=O milagre da vida eh o amor-Nando Cordel
TTITLE1=Nao me tortures mais-Nando Cordel
TTITLE2=Leite mel e licor-Nando Cordel
TTITLE3=Tudo por esse amor-Nando Cordel
TTITLE4=Nao posso controlar meu coracao-Nando Cordel
TTITLE5=Alo alo depois nunca-Nando Cordel
TTITLE6=No ar-Nando Cordel
TTITLE7=Nem todo batuque eh forro-Nando Cordel
TTITLE8=Que tal a gente se entender-Nando Cordel
TTITLE9=Se joga nos meus bracos-Nando Cordel
TTITLE10=Manhas-Nando Cordel
TTITLE11=Onde a gente vai parar-Nando Cordel
EXTD=YEAR: 2003
EXTT0=
EXTT1=
EXTT2=
EXTT3=
EXTT4=
EXTT5=
EXTT6=
EXTT7=
EXTT8=
EXTT9=
EXTT10=
EXTT11=
PLAYORDER=
